<svg xmlns="http://www.w3.org/2000/svg" xmlns:xlink="http://www.w3.org/1999/xlink" viewBox="0 0 261 382.55"><defs><style>.cls-1{fill:url(#Degradado_sin_nombre_5);}</style><linearGradient id="Degradado_sin_nombre_5" x1="130.5" y1="382.55" x2="130.5" gradientUnits="userSpaceOnUse"><stop offset="0" stop-color="#ee0b77"/><stop offset="1" stop-color="#fe6702"/></linearGradient></defs><g id="Capa_2" data-name="Capa 2"><g id="Capa_1-2" data-name="Capa 1"><path class="cls-1" d="M0,21A21,21,0,1,1,21,42,21,21,0,0,1,0,21ZM261,253.05A129.5,129.5,0,0,1,2.35,262.59c-.23-3.19-.35-6.4-.35-9.54s.32-139.92.33-145.75c0-11.13,7.5-18.62,18.65-18.62s18.63,7.49,18.63,18.64V263.68A92.5,92.5,0,0,0,224,253.05a91.43,91.43,0,0,0-20.28-57.73,93,93,0,0,0-20.64-19c-9.27-5.5-19.45-8.17-31.1-8.17a83.44,83.44,0,0,1-35.14-7.47,85,85,0,0,1-24.48-17.24c-1-1-2-2.08-3-3.19-14.38-15.78-21.67-34.68-21.67-56.17,0-23,8.32-43,24.72-59.36S128.75,0,151.76,0h81.85c11.15,0,18.64,7.53,18.64,18.75S244.76,37.5,233.61,37.5H222c9.19,13.43,13.84,29.12,13.84,46.8,0,26.63-9.59,48-28.54,63.56a100.54,100.54,0,0,1,26.46,25.87A128.15,128.15,0,0,1,261,253.05ZM118.71,51.28c-9.28,9.26-13.79,20-13.79,33s4.51,23.69,13.79,33a50.55,50.55,0,0,0,9.45,7.48,44.2,44.2,0,0,0,23.6,6.3,48.12,48.12,0,0,0,13.6-1.87,45.26,45.26,0,0,0,19.45-11.91c9.28-9.27,13.79-20,13.79-33s-4.51-23.69-13.79-32.95S164.71,37.5,151.76,37.5,128,42,118.71,51.28Z"/></g></g></svg>